<svg width="48" height="48" viewBox="0 0 48 48" fill="none" xmlns="http://www.w3.org/2000/svg">
<rect width="48" height="48" fill="#323238"/>
<path fill-rule="evenodd" clip-rule="evenodd" d="M13.2083 13.9667C13.2083 13.2257 13.809 12.625 14.55 12.625H33.45C34.1909 12.625 34.7916 13.2257 34.7916 13.9667V27.3502C34.7916 27.706 34.6502 28.0473 34.3987 28.2989L31.2228 31.4748C30.9712 31.7264 30.6299 31.8678 30.2741 31.8678H24.9783L20.9518 35.8943C20.2536 36.5925 19.0598 36.098 19.0598 35.1106V31.8678H14.55C13.809 31.8678 13.2083 31.267 13.2083 30.5261V13.9667ZM14.9583 14.375V30.1178H19.4681C20.2091 30.1178 20.8098 30.7185 20.8098 31.4594V33.5614L23.8606 30.5107C24.1121 30.2591 24.4533 30.1178 24.8092 30.1178H30.1049L33.0416 27.181V14.375H14.9583ZM22.2137 18.1083C22.697 18.1083 23.0887 18.5001 23.0887 18.9833V23.9673C23.0887 24.4507 22.697 24.8423 22.2137 24.8423C21.7305 24.8423 21.3387 24.4507 21.3387 23.9673V18.9833C21.3387 18.5001 21.7305 18.1083 22.2137 18.1083ZM28.0652 18.1083C28.5485 18.1083 28.9402 18.5001 28.9402 18.9833V23.9673C28.9402 24.4507 28.5485 24.8423 28.0652 24.8423C27.582 24.8423 27.1902 24.4507 27.1902 23.9673V18.9833C27.1902 18.5001 27.582 18.1083 28.0652 18.1083Z" fill="white"/>
</svg>
